<svg height="40" viewBox="0 -19 512 511" width="40" xmlns="http://www.w3.org/2000/svg">
    <path fill="#179bd7" d="m484.5 35.5h-166.855469l-3.113281-13.628906c-2.875-12.582032-13.898438-21.371094-26.808594-21.371094h-260.222656c-15.164062 0-27.5 12.335938-27.5 27.5v50c0 4.140625 3.359375 7.5 7.5 7.5h22.5v277.5c0 6.894531 5.605469 12.5 12.5 12.5h255.828125l-.667969 15h-270.160156c-6.894531 0-12.5-5.605469-12.5-12.5v-265c0-4.140625-3.359375-7.5-7.5-7.5s-7.5 3.359375-7.5 7.5v265c0 15.164062 12.335938 27.5 27.5 27.5h269.492188l-.183594 4.152344c-.199219 4.40625 1.875 8.503906 5.542968 10.957031 3.667969 2.453125 8.242188 2.800781 12.242188.9375l27.277344-12.71875 25.207031 54.054687c2.96875 6.367188 9.304687 10.113282 15.90625 10.113282 2.476563 0 4.988281-.527344 7.378906-1.640625l9.082031-4.234375c4.242188-1.980469 7.457032-5.488282 9.058594-9.886719 1.601563-4.398437 1.394532-9.15625-.585937-13.398437l-17.875-38.335938h94.457031c15.164062 0 27.5-12.335938 27.5-27.5v-315c0-15.164062-12.335938-27.5-27.5-27.5zm-184.59375-10.285156 2.351562 10.285156h-64.613281l-3.113281-13.628906c-.515625-2.257813-1.304688-4.386719-2.308594-6.371094h55.5c5.867188 0 10.878906 3.992188 12.183594 9.714844zm-92.183594-9.714844c5.867188 0 10.878906 3.996094 12.183594 9.714844l2.351562 10.285156h-72.777343l-3.117188-13.628906c-.515625-2.257813-1.304687-4.386719-2.308593-6.371094zm-162.722656 345v-275h394.5c4.140625 0 7.5-3.359375 7.5-7.5s-3.359375-7.5-7.5-7.5h-424.5v-42.5c0-6.894531 5.605469-12.5 12.5-12.5h92.054688c5.867187 0 10.878906 3.996094 12.1875 9.714844l4.445312 19.457031c.78125 3.410156 3.816406 5.828125 7.3125 5.828125h341c6.894531 0 12.5 5.609375 12.5 12.5v7.5h-22.5c-4.140625 0-7.5 3.359375-7.5 7.5v282.5h-50.929688c-.835937-1.8125-2.097656-3.4375-3.757812-4.707031l-48.679688-37.292969h75.867188c6.894531 0 12.5-5.605469 12.5-12.5v-50c0-6.890625-5.605469-12.5-12.5-12.5h-170c-6.894531 0-12.5 5.609375-12.5 12.5v50c0 6.894531 5.605469 12.5 12.5 12.5h31.363281l-1.871093 42zm264.074219-75.320312c-4.238281 1.976562-7 6.109374-7.210938 10.78125l-.332031 7.539062h-29.53125v-45h165v45h-92.949219l-22.082031-16.914062c-3.710938-2.84375-8.652344-3.382813-12.894531-1.40625zm85.335937 166.921874c-.132812.367188-.480468 1.039063-1.304687 1.421876l-9.082031 4.238281c-1.261719.585937-2.765626.039062-3.351563-1.222657l-28.375-60.847656c-.839844-1.804687-2.363281-3.199218-4.230469-3.878906-.832031-.300781-1.699218-.453125-2.566406-.453125-1.085938 0-2.167969.234375-3.167969.703125l-30.355469 14.15625 4.164063-93.644531c.109375-.507813.167969-1.035157.167969-1.574219 0-.304688-.023438-.601562-.058594-.894531l.386719-8.707031 19.628906 15.035156c.382813.363281.800781.683594 1.253906.960937l62.414063 47.808594-30.355469 14.15625c-3.753906 1.75-5.378906 6.210937-3.628906 9.964844l28.375 60.851562c.386719.824219.21875 1.5625.085937 1.925781zm90.089844-61.601562h-101.453125l-.332031-.71875s29.019531-13.675781 29.78125-14.28125h57.003906c6.894531 0 12.5-5.605469 12.5-12.5v-277.5h15v292.5c0 6.890625-5.605469 12.5-12.5 12.5zm0 0" />
    <path fill="#179bd7" d="m100 35.5h-51c-4.140625 0-7.5 3.359375-7.5 7.5s3.359375 7.5 7.5 7.5h51c4.140625 0 7.5-3.359375 7.5-7.5s-3.359375-7.5-7.5-7.5zm0 0" />
    <path fill="#179bd7" d="m277.59375 200.5c.191406 0 .382812-.007812.578125-.023438 2.6875-.207031 5.058594-1.839843 6.207031-4.277343l25.949219-55c1.769531-3.746094.164063-8.214844-3.582031-9.980469-3.742188-1.769531-8.214844-.167969-9.980469 3.582031l-20.332031 43.085938-13.671875-20.230469c-1.394531-2.0625-3.71875-3.296875-6.207031-3.300781-.003907 0-.003907 0-.007813 0-2.484375 0-4.808594 1.234375-6.207031 3.289062l-13.761719 20.269531-20.34375-43.113281c-1.765625-3.746093-6.238281-5.351562-9.980469-3.582031-3.746094 1.765625-5.351562 6.234375-3.585937 9.980469l25.953125 55c1.148437 2.4375 3.515625 4.070312 6.199218 4.277343 2.6875.207032 5.273438-1.039062 6.789063-3.265624l14.921875-21.980469 14.851562 21.96875c1.398438 2.074219 3.734376 3.300781 6.210938 3.300781zm0 0" />
    <path fill="#179bd7" d="m347.621094 196.199219c1.148437 2.4375 3.515625 4.070312 6.199218 4.277343 2.6875.207032 5.277344-1.039062 6.789063-3.265624l14.925781-21.980469 14.847656 21.96875c1.402344 2.074219 3.734376 3.300781 6.210938 3.300781.191406 0 .386719-.007812.578125-.023438 2.6875-.207031 5.058594-1.839843 6.207031-4.277343l25.953125-55c1.765625-3.746094.164063-8.214844-3.585937-9.980469-3.742188-1.769531-8.214844-.167969-9.980469 3.582031l-20.332031 43.085938-13.671875-20.230469c-1.394531-2.0625-3.71875-3.296875-6.207031-3.300781-.003907 0-.003907 0-.007813 0-2.484375 0-4.808594 1.234375-6.203125 3.289062l-13.765625 20.269531-20.34375-43.113281c-1.765625-3.746093-6.238281-5.351562-9.980469-3.582031-3.746094 1.765625-5.351562 6.234375-3.582031 9.980469zm0 0" />
    <path fill="#179bd7" d="m186.746094 131.21875c-3.742188-1.769531-8.214844-.167969-9.980469 3.582031l-20.332031 43.085938-13.671875-20.230469c-1.394531-2.0625-3.71875-3.296875-6.207031-3.300781-.003907 0-.003907 0-.007813 0-2.484375 0-4.808594 1.234375-6.207031 3.289062l-13.761719 20.269531-20.34375-43.113281c-1.765625-3.746093-6.238281-5.351562-9.980469-3.582031-3.746094 1.765625-5.351562 6.234375-3.585937 9.980469l25.953125 55c1.148437 2.4375 3.515625 4.070312 6.199218 4.277343 2.683594.207032 5.273438-1.039062 6.789063-3.265624l14.921875-21.980469 14.851562 21.96875c1.398438 2.074219 3.734376 3.300781 6.210938 3.300781.191406 0 .382812-.007812.578125-.023438 2.6875-.207031 5.054687-1.839843 6.207031-4.277343l25.949219-55c1.769531-3.746094.164063-8.214844-3.582031-9.980469zm0 0" />
    <path fill="#179bd7" d="m142 243.5h-74c-4.140625 0-7.5 3.359375-7.5 7.5s3.359375 7.5 7.5 7.5h74c4.140625 0 7.5-3.359375 7.5-7.5s-3.355469-7.5-7.5-7.5zm0 0" />
    <path fill="#179bd7" d="m219 243.5h-42c-4.140625 0-7.5 3.359375-7.5 7.5s3.359375 7.5 7.5 7.5h42c4.140625 0 7.5-3.359375 7.5-7.5s-3.359375-7.5-7.5-7.5zm0 0" />
    <path fill="#179bd7" d="m142 273.5h-74c-4.140625 0-7.5 3.359375-7.5 7.5s3.359375 7.5 7.5 7.5h74c4.140625 0 7.5-3.359375 7.5-7.5s-3.355469-7.5-7.5-7.5zm0 0" />
    <path fill="#179bd7" d="m219 273.5h-42c-4.140625 0-7.5 3.359375-7.5 7.5s3.359375 7.5 7.5 7.5h42c4.140625 0 7.5-3.359375 7.5-7.5s-3.359375-7.5-7.5-7.5zm0 0" />
    <path fill="#179bd7" d="m142 303.5h-74c-4.140625 0-7.5 3.359375-7.5 7.5s3.359375 7.5 7.5 7.5h74c4.140625 0 7.5-3.359375 7.5-7.5s-3.355469-7.5-7.5-7.5zm0 0" />
    <path fill="#179bd7" d="m219 303.5h-42c-4.140625 0-7.5 3.359375-7.5 7.5s3.359375 7.5 7.5 7.5h42c4.140625 0 7.5-3.359375 7.5-7.5s-3.359375-7.5-7.5-7.5zm0 0" />
</svg>