<svg id="Capa_1" enable-background="new 0 0 508 508" height="40" viewBox="0 0 508 508" width="40" xmlns="http://www.w3.org/2000/svg">
    <g>
        <path fill="#179bd7" d="m508 423.993c0 16.569-13.432 30-30 30l-448.64-.006c-16.248-.342-29.36-13.665-29.36-29.994v-274c0-16.569 13.431-30 30-30h322.303l36-36c5.222-5.221 12.63-6.927 19.299-5.157l16.056-16.056c11.697-11.698 30.729-11.697 42.427 0 11.696 11.697 11.696 30.729 0 42.427l-14.787 14.787h26.702c16.569 0 30 13.431 30 30v91.98c0 5.52-4.49 10-10 10s-10-4.48-10-10v-91.98c-.01-5.5-4.5-9.99-10-10h-32.598l-19.962 20h32.56c5.523 0 10 4.477 10 10v234c0 5.523-4.477 10-10 10h-438v9.719c0 5.553 4.447 10.303 10 10.281h448c5.5-.01 9.99-4.49 10-10v-91.662c0-5.318 4-9.973 9.306-10.334 5.822-.396 10.694 4.236 10.694 9.976zm-133.84-297.573-114.551 114.551 28.284 28.284 114.551-114.552zm-16.424 101.278-36.031 36.031c4.702 4.583 11.061 7.265 17.795 7.265 14.061 0 25.5-11.439 25.5-25.5 0-6.735-2.681-13.094-7.264-17.796zm-123.831 67.262 39.092-12.317-26.776-26.776zm58.397-114.967h-198.302v54.548c4.337 1.713 8.206 4.534 11.214 8.295l73.111 91.389 31.524-29.469 18.726-59.435c.483-1.534 1.329-2.929 2.466-4.066zm-272.302-30v10h292.302l20-20h-302.302c-5.514 0-10 4.486-10 10zm54 224h-54v20h54zm0-48.564c-7.646 5.387-16.956 8.564-27 8.564s-19.354-3.177-27-8.564v28.564h54zm0-38.436c0-14.888-12.112-27-27-27s-27 12.112-27 27 12.112 27 27 27 27-12.112 27-27zm0-67h-54v28.564c7.646-5.387 16.956-8.564 27-8.564s19.354 3.177 27 8.564zm0-40h-54v20h54zm259.326 214-87.521-81.813-22.037 6.943-39.675 37.088c-5.052 4.274-10.956 3.137-14.638-1.058l-75.455-94.318v133.159h239.326zm72.114-214-33.566 33.566c8.28 8.404 13.126 19.828 13.126 31.934 0 25.089-20.411 45.5-45.5 45.5-12.106 0-23.53-4.847-31.934-13.126l-19.956 19.956c-1.138 1.137-2.532 1.983-4.066 2.466l-15.835 4.989 94.904 88.715h85.387v-214zm25.289-53.573-28.284-28.284-14.142 14.142 28.284 28.284zm21.213-35.356c4.09-4.329 3.638-10.522 0-14.142-3.909-3.889-10.243-3.899-14.142 0l-14.143 14.142 14.141 14.142zm46.058 185.919c-5.51 0-10 4.48-10 9.99 0 5.52 4.49 10 10 10s10-4.48 10-10c0-5.51-4.49-9.99-10-9.99z" />
    </g>
</svg>