<svg id="Layer_5" enable-background="new 0 0 64 64" height="40" viewBox="0 0 64 64" width="40" xmlns="http://www.w3.org/2000/svg">
    <path fill="#179bd7" d="m60 39h-15v-11.586l16.257-16.257c1.124-1.124 1.743-2.618 1.743-4.207 0-3.281-2.669-5.95-5.95-5.95-1.589 0-3.083.619-4.207 1.742l-7.843 7.843v-2.585c0-2.757-2.243-5-5-5h-7.184c-.414-1.161-1.514-2-2.816-2h-14c-1.302 0-2.402.839-2.816 2h-7.184c-2.757 0-5 2.243-5 5v42c0 2.757 2.243 5 5 5h27v5c0 1.654 1.346 3 3 3h24c1.654 0 3-1.346 3-3v-18c0-1.654-1.346-3-3-3zm-11 4v2h-2v-2h-2v2h-2v-4h10v4h-2v-2zm-16-1v7h-26v-40h6.184c.414 1.161 1.514 2 2.816 2h14c1.302 0 2.402-.839 2.816-2h6.184v7.586l-10.86 10.86-2.968 7.914c-.114.303-.172.621-.172.947 0 1.485 1.208 2.693 2.693 2.693.325 0 .644-.058.945-.171l7.915-2.969 2.447-2.446v5.586h-3c-1.654 0-3 1.346-3 3zm3-8.414-2.086-2.086 16.586-16.586 2.086 2.086zm-6.609-3.781 4.804 4.804-6.26 2.348c-.424.157-.935-.185-.935-.65 0-.084.015-.165.044-.242zm19.023-19.805 1.586-1.586 5.586 5.586-1.586 1.586zm.672 3.5-16.586 16.586-2.086-2.086 16.586-16.586zm-6.086 25.5h-2v-7.586l2-2zm11.257-34.843c.746-.746 1.738-1.157 2.793-1.157 2.178 0 3.95 1.772 3.95 3.95 0 1.055-.411 2.047-1.157 2.793l-2.843 2.843-5.586-5.586zm-11.257 3.843v4.585l-2 2v-5.585c0-1.103-.897-2-2-2h-6v-2h7c1.654 0 3 1.346 3 3zm-28-4c0-.551.448-1 1-1h14c.552 0 1 .449 1 1v4c0 .551-.448 1-1 1h-14c-.552 0-1-.449-1-1zm-9 49c-1.654 0-3-1.346-3-3v-42c0-1.654 1.346-3 3-3h7v2h-6c-1.103 0-2 .897-2 2v40c0 1.103.897 2 2 2h26v2zm55 7c0 .552-.448 1-1 1h-24c-.552 0-1-.448-1-1v-18c0-.552.448-1 1-1h5v6h14v-6h5c.552 0 1 .448 1 1z" />
    <path fill="#179bd7" d="m49 57h2v2h-2z" />
    <path fill="#179bd7" d="m57 57h2v2h-2z" />
    <path fill="#179bd7" d="m53 57h2v2h-2z" />
    <path fill="#179bd7" d="m49 53h10v2h-10z" />
    <path fill="#179bd7" d="m20.293 11.293-1.707 1.707h-9.586v10h10v-7.586l2.707-2.707zm-3.293 9.707h-6v-6h5.586l-2.586 2.586-1.293-1.293-1.414 1.414 2.707 2.707 3-3z" />
    <path fill="#179bd7" d="m9 35h10v-10h-10zm2-8h6v6h-6z" />
    <path fill="#179bd7" d="m9 47h10v-10h-10zm2-8h6v6h-6z" />
    <path fill="#179bd7" d="m23 13h8v2h-8z" />
    <path fill="#179bd7" d="m23 17h8v2h-8z" />
    <path fill="#179bd7" d="m23 21h8v2h-8z" />
    <path fill="#179bd7" d="m23 41h8v2h-8z" />
    <path fill="#179bd7" d="m23 45h8v2h-8z" />
</svg>