<svg height="40" viewBox="0 0 64 64" width="40" xmlns="http://www.w3.org/2000/svg">
    <g id="Web-Browser-Coding-Programing-Engineer" >
        <path fill="#179bd7" d="m61.9 56.553-6-12a1 1 0 0 0 -.9-.553h-46a1 1 0 0 0 -.895.553l-6 12a1 1 0 0 0 -.105.447v3a2 2 0 0 0 2 2h56a2 2 0 0 0 2-2v-3a1 1 0 0 0 -.1-.447zm-52.282-10.553h44.764l5 10h-54.764zm-5.618 14v-2h56v2z" />
        <path fill="#179bd7" d="m10 52h2v2h-2z" />
        <path fill="#179bd7" d="m14 52h2v2h-2z" />
        <path fill="#179bd7" d="m18 52h28v2h-28z" />
        <path fill="#179bd7" d="m48 52h2v2h-2z" />
        <path fill="#179bd7" d="m52 52h2v2h-2z" />
        <path fill="#179bd7" d="m15 48h2v2h-2z" />
        <path fill="#179bd7" d="m11 48h2v2h-2z" />
        <path fill="#179bd7" d="m19 48h2v2h-2z" />
        <path fill="#179bd7" d="m23 48h2v2h-2z" />
        <path fill="#179bd7" d="m27 48h2v2h-2z" />
        <path fill="#179bd7" d="m31 48h2v2h-2z" />
        <path fill="#179bd7" d="m35 48h2v2h-2z" />
        <path fill="#179bd7" d="m39 48h2v2h-2z" />
        <path fill="#179bd7" d="m43 48h2v2h-2z" />
        <path fill="#179bd7" d="m47 48h2v2h-2z" />
        <path fill="#179bd7" d="m51 48h2v2h-2z" />
        <path fill="#179bd7" d="m11 42h42a3 3 0 0 0 3-3v-34a3 3 0 0 0 -3-3h-42a3 3 0 0 0 -3 3v34a3 3 0 0 0 3 3zm-1-3v-1.54a6 6 0 1 0 0-8.92v-3.564a8.46 8.46 0 0 1 1.775-.686 1 1 0 0 0 .746-.83l.348-2.46h2.262l.348 2.46a1 1 0 0 0 .744.829 8.722 8.722 0 0 1 2.352.979 1 1 0 0 0 1.115-.058l2-1.5 1.6 1.6-1.5 2a1 1 0 0 0 -.058 1.115 8.773 8.773 0 0 1 .979 2.352 1 1 0 0 0 .829.744l2.46.347v2.264l-2.46.347a1 1 0 0 0 -.829.744 8.773 8.773 0 0 1 -.979 2.352 1 1 0 0 0 .058 1.115l.983 1.31h-11.773a1 1 0 0 1 -1-1zm0-6a4 4 0 1 1 4 4 4 4 0 0 1 -4-4zm20 7h-4.725l-1.5-1.991a10.859 10.859 0 0 0 .682-1.64l2.679-.379a1 1 0 0 0 .864-.99v-4a1 1 0 0 0 -.86-.99l-2.679-.379a10.859 10.859 0 0 0 -.682-1.64l1.631-2.171a1 1 0 0 0 -.093-1.307l-2.83-2.83a1 1 0 0 0 -1.307-.093l-2.171 1.631a10.757 10.757 0 0 0 -1.64-.682l-.379-2.679a1 1 0 0 0 -.99-.86h-4a1 1 0 0 0 -.99.86l-.379 2.678c-.216.069-.421.159-.631.242v-10.78h20zm24-35v34a1 1 0 0 1 -1 1h-21v-36h21a1 1 0 0 1 1 1zm-43-1h19v6h-20v-5a1 1 0 0 1 1-1z" />
        <path fill="#179bd7" d="m12 6h2v2h-2z" />
        <path fill="#179bd7" d="m16 6h2v2h-2z" />
        <path fill="#179bd7" d="m20 6h2v2h-2z" />
        <path fill="#179bd7" d="m38.293 15.707 1.414-1.414-2.293-2.293 2.293-2.293-1.414-1.414-3 3a1 1 0 0 0 0 1.414z" />
        <path fill="#179bd7" d="m47.707 15.707 3-3a1 1 0 0 0 0-1.414l-3-3-1.414 1.414 2.293 2.293-2.293 2.293z" />
        <path fill="#179bd7" d="m39.838 11h6.325v2h-6.325z" transform="matrix(.316 -.949 .949 .316 18.012 48.995)" />
        <path fill="#179bd7" d="m35 19h4v2h-4z" />
        <path fill="#179bd7" d="m41 19h8v2h-8z" />
        <path fill="#179bd7" d="m37 23h6v2h-6z" />
        <path fill="#179bd7" d="m45 23h4v2h-4z" />
        <path fill="#179bd7" d="m35 27h4v2h-4z" />
        <path fill="#179bd7" d="m41 27h6v2h-6z" />
        <path fill="#179bd7" d="m37 31h8v2h-8z" />
        <path fill="#179bd7" d="m47 31h2v2h-2z" />
    </g>
</svg>