<?xml version="1.0"?>
    <svg xmlns="http://www.w3.org/2000/svg" id="Outline" viewBox="0 0 512 512" width="40" height="40">
        <path fill="#179bd7" d="M40,448H417.849l16.61,34.511a24.006,24.006,0,0,0,32.087,11.06h0a24,24,0,0,0,11.078-32.053L471.119,448H472a24.028,24.028,0,0,0,24-24V40a24.028,24.028,0,0,0-24-24H40A24.028,24.028,0,0,0,16,40V424A24.028,24.028,0,0,0,40,448Zm423.6,26.6a8,8,0,0,1-14.738.932l-34.22-71.1,14.383-7.009,34.2,71.064A7.951,7.951,0,0,1,463.6,474.6Zm-62.835-99,14.383-7.01,6.939,14.418L407.7,390.02ZM472,432h-8.582l-22.781-47.334a7.959,7.959,0,0,0-.561-1.524,8.072,8.072,0,0,0-.8-1.3l-13.2-27.431a8,8,0,0,0-10.713-3.722l-7.191,3.5-6.472-13.28A111.974,111.974,0,1,0,288,148.706V120a8,8,0,0,0-8-8H56a8,8,0,0,0-8,8v96a8,8,0,0,0,8,8H241.227a112.009,112.009,0,0,0,145.64,123l6.921,14.2-7.192,3.5a8,8,0,0,0-3.7,10.661L410.149,432H40a8.009,8.009,0,0,1-8-8V96H480V424A8.009,8.009,0,0,1,472,432ZM244.834,208H64V192H200a8,8,0,0,0,0-16H64V160h56a8,8,0,0,0,0-16H64V128H272v34.267A112.1,112.1,0,0,0,244.834,208ZM352,144.564a96,96,0,1,1-96,96A96.109,96.109,0,0,1,352,144.564ZM40,32H472a8.009,8.009,0,0,1,8,8V80H32V40A8.009,8.009,0,0,1,40,32Z" />
        <circle fill="#179bd7" cx="120" cy="56" r="8" />
        <circle fill="#179bd7" cx="88" cy="56" r="8" />
        <circle  fill="#179bd7" cx="56" cy="56" r="8" />
        <path fill="#179bd7" d="M56,256h64a8,8,0,0,0,0-16H56a8,8,0,0,0,0,16Z" />
        <path fill="#179bd7" d="M48,280a8,8,0,0,0,8,8H200a8,8,0,0,0,0-16H56A8,8,0,0,0,48,280Z" />
        <path fill="#179bd7" d="M56,320h64a8,8,0,0,0,0-16H56a8,8,0,0,0,0,16Z" />
        <path fill="#179bd7" d="M48,344a8,8,0,0,0,8,8H240a8,8,0,0,0,0-16H56A8,8,0,0,0,48,344Z" />
        <path fill="#179bd7" d="M56,384h64a8,8,0,0,0,0-16H56a8,8,0,0,0,0,16Z" />
        <path fill="#179bd7" d="M48,408a8,8,0,0,0,8,8H312a8,8,0,0,0,0-16H56A8,8,0,0,0,48,408Z" />
        <path fill="#179bd7" d="M352,256a8,8,0,0,0,8-8V232a8,8,0,0,0-16,0v16A8,8,0,0,0,352,256Z" />
        <path fill="#179bd7" d="M320,256a8,8,0,0,0,8-8V232a8,8,0,0,0-16,0v16A8,8,0,0,0,320,256Z" />
        <path fill="#179bd7" d="M384,256a8,8,0,0,0,8-8V216a8,8,0,0,0-16,0v32A8,8,0,0,0,384,256Z" />
        <path fill="#179bd7" d="M351.977,320.588a80,80,0,1,0-80-80A80.091,80.091,0,0,0,351.977,320.588Zm0-144a64,64,0,1,1-64,64A64.073,64.073,0,0,1,351.977,176.588Z" />
    </svg>