<svg id="Layer_5" enable-background="new 0 0 64 64" height="40" viewBox="0 0 64 64" width="40" xmlns="http://www.w3.org/2000/svg">
    <g>
        <path fill="#179bd7" d="m58 7h-21v-3c0-1.654-1.346-3-3-3h-26c-1.654 0-3 1.346-3 3v3.101c-2.279.465-4 2.485-4 4.899v32c0 2.757 2.243 5 5 5h16v2.57c-7.975 1.004-8 2.755-8 3.43v4c0 3.808 14.994 4 18 4s18-.192 18-4v-4c0-.675-.025-2.426-8-3.43v-2.57h16c2.757 0 5-2.243 5-5v-32c0-2.757-2.243-5-5-5zm-51-3c0-.552.449-1 1-1h26c.551 0 1 .448 1 1v22c0 .552-.449 1-1 1h-26c-.551 0-1-.448-1-1zm-2 5.184v16.816c0 1.654 1.346 3 3 3h26c1.654 0 3-1.346 3-3v-17h21c1.654 0 3 1.346 3 3v27h-58v-27c0-1.302.839-2.402 2-2.816zm27 51.816c-9.803 0-15.217-1.385-16-2.144v-1.786c4.184 1.813 13.675 1.93 16 1.93s11.816-.117 16-1.93v1.787c-.783.758-6.197 2.143-16 2.143zm15.799-5.995c-1.276.778-6.609 1.995-15.799 1.995s-14.523-1.217-15.799-1.995c.594-.353 2.252-.953 5.799-1.419v1.414h20v-1.414c3.547.466 5.206 1.066 5.799 1.419zm-7.799-2.005h-16v-4h16zm18-6h-52c-1.654 0-3-1.346-3-3v-3h58v3c0 1.654-1.346 3-3 3z" />
        <path fill="#179bd7" d="m53 43h2v2h-2z" />
        <path fill="#179bd7" d="m57 43h2v2h-2z" />
        <path fill="#179bd7" d="m49 43h2v2h-2z" />
        <path fill="#179bd7" d="m16.759 21.35-5.442-6.35 5.442-6.35-1.518-1.3-6.558 7.65 6.558 7.65z" />
        <path fill="#179bd7" d="m26.759 22.65 6.558-7.65-6.558-7.65-1.518 1.3 5.442 6.35-5.442 6.35z" />
        <path fill="#179bd7" d="m9 31h2v2h-2z" />
        <path fill="#179bd7" d="m13 31h20v2h-20z" />
        <path fill="#179bd7" d="m9 35h20v2h-20z" />
        <path fill="#179bd7" d="m31 35h2v2h-2z" />
        <path fill="#179bd7" d="m40.764 30.616-.755 1.533 3.841 3.843 1.534-.756c.116.052.233.101.35.146l.55 1.618h5.432l.551-1.617c.117-.046.233-.095.35-.146l1.534.756 3.841-3.843-.755-1.533c.052-.116.101-.232.146-.35l1.617-.551v-5.432l-1.617-.551c-.046-.117-.095-.233-.146-.35l.755-1.535-3.841-3.84-1.534.755c-.116-.052-.233-.101-.35-.146l-.551-1.617h-5.432l-.551 1.617c-.117.046-.233.095-.35.146l-1.534-.755-3.841 3.84.755 1.535c-.052.116-.101.232-.146.35l-1.617.551v5.432l1.617.551c.046.117.095.233.147.349zm.236-4.9 1.19-.405.155-.476c.109-.334.25-.672.42-1.004l.228-.447-.558-1.133 1.816-1.816 1.133.558.446-.228c.333-.169.672-.311 1.006-.419l.476-.155.404-1.191h2.568l.405 1.19.476.155c.334.108.672.25 1.006.419l.446.228 1.133-.558 1.816 1.816-.558 1.133.228.447c.169.332.311.67.42 1.004l.155.476 1.189.406v2.568l-1.19.405-.155.476c-.109.334-.25.672-.42 1.004l-.228.447.558 1.133-1.816 1.815-1.133-.557-.446.228c-.333.169-.672.311-1.006.419l-.476.155-.404 1.191h-2.568l-.405-1.19-.476-.155c-.334-.108-.672-.25-1.006-.419l-.446-.228-1.133.557-1.816-1.815.558-1.133-.228-.447c-.169-.332-.311-.67-.42-1.004l-.155-.476-1.189-.406z" />
        <path fill="#179bd7" d="m49 32c2.757 0 5-2.243 5-5s-2.243-5-5-5-5 2.243-5 5 2.243 5 5 5zm0-8c1.654 0 3 1.346 3 3s-1.346 3-3 3-3-1.346-3-3 1.346-3 3-3z" />
        <path fill="#179bd7" d="m12.938 14h16.125v2h-16.125z" transform="matrix(.124 -.992 .992 .124 3.511 33.977)" />
    </g>
</svg>